<?xml version="1.0" encoding="UTF-8" standalone="no"?>
<!DOCTYPE svg PUBLIC "-//W3C//DTD SVG 1.1//EN"
 "http://www.w3.org/Graphics/SVG/1.1/DTD/svg11.dtd">
<!-- Generated by graphviz version 2.47.0 (20210316.0004)
 -->
<!-- Title: dependencies Pages: 1 -->
<svg width="1791pt" height="352pt"
 viewBox="0.00 0.00 1791.00 352.00" xmlns="http://www.w3.org/2000/svg" xmlns:xlink="http://www.w3.org/1999/xlink">
<g id="graph0" class="graph" transform="scale(1 1) rotate(0) translate(4 348)">
<title>dependencies</title>
<polygon fill="white" stroke="transparent" points="-4,4 -4,-348 1787,-348 1787,4 -4,4"/>
<text text-anchor="start" x="870.51" y="-42.4" font-family="Times-12" font-weight="bold" font-size="14.00">Legend</text>
<polygon fill="#ffffb3" stroke="transparent" points="657.5,-10 657.5,-30 677.5,-30 677.5,-10 657.5,-10"/>
<text text-anchor="start" x="681.13" y="-15.4" font-family="Times-12" font-size="14.00"> &#160;Declarations</text>
<polygon fill="#8dd3c7" stroke="transparent" points="770.5,-10 770.5,-30 790.5,-30 790.5,-10 770.5,-10"/>
<text text-anchor="start" x="794.23" y="-15.4" font-family="Times-12" font-size="14.00"> &#160;Module</text>
<polygon fill="#80b1d3" stroke="transparent" points="856.5,-10 856.5,-30 876.5,-30 876.5,-10 856.5,-10"/>
<text text-anchor="start" x="880.28" y="-15.4" font-family="Times-12" font-size="14.00"> &#160;Bootstrap</text>
<polygon fill="#fdb462" stroke="transparent" points="953.5,-10 953.5,-30 973.5,-30 973.5,-10 953.5,-10"/>
<text text-anchor="start" x="977.17" y="-15.4" font-family="Times-12" font-size="14.00"> &#160;Providers</text>
<polygon fill="#fb8072" stroke="transparent" points="1049.5,-10 1049.5,-30 1069.5,-30 1069.5,-10 1049.5,-10"/>
<text text-anchor="start" x="1073.23" y="-15.4" font-family="Times-12" font-size="14.00"> &#160;Exports</text>
<g id="clust1" class="cluster">
<title>cluster_AppModule</title>
<polygon fill="none" stroke="black" stroke-dasharray="1,5" points="8,-70 8,-336 727,-336 727,-70 8,-70"/>
</g>
<g id="clust2" class="cluster">
<title>cluster_AppModule_declarations</title>
<polygon fill="none" stroke="black" points="597,-146 597,-198 719,-198 719,-146 597,-146"/>
</g>
<g id="clust4" class="cluster">
<title>cluster_AppModule_imports</title>
<polygon fill="none" stroke="black" points="208,-78 208,-198 589,-198 589,-78 208,-78"/>
</g>
<g id="clust6" class="cluster">
<title>cluster_AppModule_bootstrap</title>
<polygon fill="none" stroke="black" points="201,-276 201,-328 325,-328 325,-276 201,-276"/>
</g>
<g id="clust7" class="cluster">
<title>cluster_AppModule_providers</title>
<polygon fill="none" stroke="black" points="16,-146 16,-198 166,-198 166,-146 16,-146"/>
</g>
<g id="clust14" class="cluster">
<title>cluster_HomeModule</title>
<polygon fill="none" stroke="black" stroke-dasharray="1,5" points="735,-70 735,-138 1045,-138 1045,-70 735,-70"/>
</g>
<g id="clust15" class="cluster">
<title>cluster_HomeModule_declarations</title>
<polygon fill="none" stroke="black" points="905,-78 905,-130 1037,-130 1037,-78 905,-78"/>
</g>
<g id="clust17" class="cluster">
<title>cluster_HomeModule_imports</title>
<polygon fill="none" stroke="black" points="743,-78 743,-130 897,-130 897,-78 743,-78"/>
</g>
<g id="clust27" class="cluster">
<title>cluster_NewjobModule</title>
<polygon fill="none" stroke="black" stroke-dasharray="1,5" points="1053,-70 1053,-138 1383,-138 1383,-70 1053,-70"/>
</g>
<g id="clust28" class="cluster">
<title>cluster_NewjobModule_declarations</title>
<polygon fill="none" stroke="black" points="1233,-78 1233,-130 1375,-130 1375,-78 1233,-78"/>
</g>
<g id="clust30" class="cluster">
<title>cluster_NewjobModule_imports</title>
<polygon fill="none" stroke="black" points="1061,-78 1061,-130 1225,-130 1225,-78 1061,-78"/>
</g>
<g id="clust40" class="cluster">
<title>cluster_NewpositionModule</title>
<polygon fill="none" stroke="black" stroke-dasharray="1,5" points="1391,-70 1391,-138 1775,-138 1775,-70 1391,-70"/>
</g>
<g id="clust41" class="cluster">
<title>cluster_NewpositionModule_declarations</title>
<polygon fill="none" stroke="black" points="1599,-78 1599,-130 1767,-130 1767,-78 1599,-78"/>
</g>
<g id="clust43" class="cluster">
<title>cluster_NewpositionModule_imports</title>
<polygon fill="none" stroke="black" points="1399,-78 1399,-130 1591,-130 1591,-78 1399,-78"/>
</g>
<!-- AppComponent -->
<g id="node1" class="node">
<title>AppComponent</title>
<polygon fill="#ffffb3" stroke="black" points="710.94,-190 605.06,-190 605.06,-154 710.94,-154 710.94,-190"/>
<text text-anchor="middle" x="658" y="-167.8" font-family="Times,serif" font-size="14.00">AppComponent</text>
</g>
<!-- AppModule -->
<g id="node2" class="node">
<title>AppModule</title>
<polygon fill="#8dd3c7" stroke="black" points="304.66,-255 301.66,-259 280.66,-259 277.66,-255 221.34,-255 221.34,-219 304.66,-219 304.66,-255"/>
<text text-anchor="middle" x="263" y="-232.8" font-family="Times,serif" font-size="14.00">AppModule</text>
</g>
<!-- AppComponent&#45;&gt;AppModule -->
<g id="edge1" class="edge">
<title>AppComponent&#45;&gt;AppModule</title>
<path fill="none" stroke="black" d="M658,-190.25C658,-213.02 658,-249 658,-249 658,-249 314.9,-249 314.9,-249"/>
<polygon fill="black" stroke="black" points="314.9,-245.5 304.9,-249 314.9,-252.5 314.9,-245.5"/>
</g>
<!-- AppComponent  -->
<g id="node8" class="node">
<title>AppComponent </title>
<polygon fill="#80b1d3" stroke="black" points="317.44,-320 208.56,-320 208.56,-284 317.44,-284 317.44,-320"/>
<text text-anchor="middle" x="263" y="-297.8" font-family="Times,serif" font-size="14.00">AppComponent </text>
</g>
<!-- AppModule&#45;&gt;AppComponent  -->
<g id="edge7" class="edge">
<title>AppModule&#45;&gt;AppComponent </title>
<path fill="none" stroke="black" stroke-dasharray="1,5" d="M263,-255.11C263,-255.11 263,-273.99 263,-273.99"/>
<polygon fill="black" stroke="black" points="259.5,-273.99 263,-283.99 266.5,-273.99 259.5,-273.99"/>
</g>
<!-- AppRoutingModule -->
<g id="node3" class="node">
<title>AppRoutingModule</title>
<polygon fill="#8dd3c7" stroke="black" points="344.27,-122 341.27,-126 320.27,-126 317.27,-122 215.73,-122 215.73,-86 344.27,-86 344.27,-122"/>
<text text-anchor="middle" x="280" y="-99.8" font-family="Times,serif" font-size="14.00">AppRoutingModule</text>
</g>
<!-- AppRoutingModule&#45;&gt;AppModule -->
<g id="edge2" class="edge">
<title>AppRoutingModule&#45;&gt;AppModule</title>
<path fill="none" stroke="black" d="M313.68,-122.11C313.68,-155.87 313.68,-225 313.68,-225 313.68,-225 312.79,-225 312.79,-225"/>
<polygon fill="black" stroke="black" points="314.85,-221.5 304.85,-225 314.85,-228.5 314.85,-221.5"/>
</g>
<!-- HomeModule -->
<g id="node4" class="node">
<title>HomeModule</title>
<polygon fill="#8dd3c7" stroke="black" points="309.76,-190 306.76,-194 285.76,-194 282.76,-190 216.24,-190 216.24,-154 309.76,-154 309.76,-190"/>
<text text-anchor="middle" x="263" y="-167.8" font-family="Times,serif" font-size="14.00">HomeModule</text>
</g>
<!-- HomeModule&#45;&gt;AppModule -->
<g id="edge3" class="edge">
<title>HomeModule&#45;&gt;AppModule</title>
<path fill="none" stroke="black" d="M263,-190.11C263,-190.11 263,-208.99 263,-208.99"/>
<polygon fill="black" stroke="black" points="259.5,-208.99 263,-218.99 266.5,-208.99 259.5,-208.99"/>
</g>
<!-- NewjobModule -->
<g id="node5" class="node">
<title>NewjobModule</title>
<polygon fill="#8dd3c7" stroke="black" points="431.87,-190 428.87,-194 407.87,-194 404.87,-190 328.13,-190 328.13,-154 431.87,-154 431.87,-190"/>
<text text-anchor="middle" x="380" y="-167.8" font-family="Times,serif" font-size="14.00">NewjobModule</text>
</g>
<!-- NewjobModule&#45;&gt;AppModule -->
<g id="edge4" class="edge">
<title>NewjobModule&#45;&gt;AppModule</title>
<path fill="none" stroke="black" d="M380,-190.02C380,-207.37 380,-231 380,-231 380,-231 314.91,-231 314.91,-231"/>
<polygon fill="black" stroke="black" points="314.91,-227.5 304.91,-231 314.91,-234.5 314.91,-227.5"/>
</g>
<!-- NewpositionModule -->
<g id="node6" class="node">
<title>NewpositionModule</title>
<polygon fill="#8dd3c7" stroke="black" points="580.59,-190 577.59,-194 556.59,-194 553.59,-190 449.41,-190 449.41,-154 580.59,-154 580.59,-190"/>
<text text-anchor="middle" x="515" y="-167.8" font-family="Times,serif" font-size="14.00">NewpositionModule</text>
</g>
<!-- NewpositionModule&#45;&gt;AppModule -->
<g id="edge5" class="edge">
<title>NewpositionModule&#45;&gt;AppModule</title>
<path fill="none" stroke="black" d="M515,-190.28C515,-211.32 515,-243 515,-243 515,-243 314.9,-243 314.9,-243"/>
<polygon fill="black" stroke="black" points="314.9,-239.5 304.9,-243 314.9,-246.5 314.9,-239.5"/>
</g>
<!-- SharedModule -->
<g id="node7" class="node">
<title>SharedModule</title>
<polygon fill="#8dd3c7" stroke="black" points="461.42,-122 458.42,-126 437.42,-126 434.42,-122 362.58,-122 362.58,-86 461.42,-86 461.42,-122"/>
<text text-anchor="middle" x="412" y="-99.8" font-family="Times,serif" font-size="14.00">SharedModule</text>
</g>
<!-- SharedModule&#45;&gt;AppModule -->
<g id="edge6" class="edge">
<title>SharedModule&#45;&gt;AppModule</title>
<path fill="none" stroke="black" d="M440.69,-122.21C440.69,-158.64 440.69,-237 440.69,-237 440.69,-237 314.66,-237 314.66,-237"/>
<polygon fill="black" stroke="black" points="314.66,-233.5 304.66,-237 314.66,-240.5 314.66,-233.5"/>
</g>
<!-- SharedModule&#45;&gt;HomeModule -->
<g id="edge11" class="edge">
<title>SharedModule&#45;&gt;HomeModule</title>
<path fill="none" stroke="black" d="M376.62,-122.17C376.62,-124.45 376.62,-126 376.62,-126 376.62,-126 239.56,-126 239.56,-126 239.56,-126 239.56,-143.82 239.56,-143.82"/>
<polygon fill="black" stroke="black" points="236.06,-143.82 239.56,-153.82 243.06,-143.82 236.06,-143.82"/>
</g>
<!-- SharedModule&#45;&gt;NewjobModule -->
<g id="edge14" class="edge">
<title>SharedModule&#45;&gt;NewjobModule</title>
<path fill="none" stroke="black" d="M390.45,-122.22C390.45,-122.22 390.45,-143.73 390.45,-143.73"/>
<polygon fill="black" stroke="black" points="386.95,-143.73 390.45,-153.73 393.95,-143.73 386.95,-143.73"/>
</g>
<!-- SharedModule&#45;&gt;NewpositionModule -->
<g id="edge17" class="edge">
<title>SharedModule&#45;&gt;NewpositionModule</title>
<path fill="none" stroke="black" d="M455.33,-122.22C455.33,-122.22 455.33,-143.73 455.33,-143.73"/>
<polygon fill="black" stroke="black" points="451.83,-143.73 455.33,-153.73 458.83,-143.73 451.83,-143.73"/>
</g>
<!-- JobappService -->
<g id="node9" class="node">
<title>JobappService</title>
<ellipse fill="#fdb462" stroke="black" cx="91" cy="-172" rx="67.2" ry="18"/>
<text text-anchor="middle" x="91" y="-167.8" font-family="Times,serif" font-size="14.00">JobappService</text>
</g>
<!-- JobappService&#45;&gt;AppModule -->
<g id="edge8" class="edge">
<title>JobappService&#45;&gt;AppModule</title>
<path fill="none" stroke="black" d="M91,-190.11C91,-209.34 91,-237 91,-237 91,-237 210.92,-237 210.92,-237"/>
<polygon fill="black" stroke="black" points="210.92,-240.5 220.92,-237 210.92,-233.5 210.92,-240.5"/>
</g>
<!-- HomeComponent -->
<g id="node10" class="node">
<title>HomeComponent</title>
<polygon fill="#ffffb3" stroke="black" points="1028.55,-122 913.45,-122 913.45,-86 1028.55,-86 1028.55,-122"/>
<text text-anchor="middle" x="971" y="-99.8" font-family="Times,serif" font-size="14.00">HomeComponent</text>
</g>
<!-- HomeComponent&#45;&gt;HomeModule -->
<g id="edge9" class="edge">
<title>HomeComponent&#45;&gt;HomeModule</title>
<path fill="none" stroke="black" d="M971,-122.14C971,-128.46 971,-134 971,-134 971,-134 286.44,-134 286.44,-134 286.44,-134 286.44,-143.89 286.44,-143.89"/>
<polygon fill="black" stroke="black" points="282.94,-143.89 286.44,-153.89 289.94,-143.89 282.94,-143.89"/>
</g>
<!-- HomeRoutingModule -->
<g id="node11" class="node">
<title>HomeRoutingModule</title>
<polygon fill="#8dd3c7" stroke="black" points="889.38,-122 886.38,-126 865.38,-126 862.38,-122 750.62,-122 750.62,-86 889.38,-86 889.38,-122"/>
<text text-anchor="middle" x="820" y="-99.8" font-family="Times,serif" font-size="14.00">HomeRoutingModule</text>
</g>
<!-- HomeRoutingModule&#45;&gt;HomeModule -->
<g id="edge10" class="edge">
<title>HomeRoutingModule&#45;&gt;HomeModule</title>
<path fill="none" stroke="black" d="M820,-122.06C820,-126.49 820,-130 820,-130 820,-130 263,-130 263,-130 263,-130 263,-143.94 263,-143.94"/>
<polygon fill="black" stroke="black" points="259.5,-143.94 263,-153.94 266.5,-143.94 259.5,-143.94"/>
</g>
<!-- NewjobComponent -->
<g id="node12" class="node">
<title>NewjobComponent</title>
<polygon fill="#ffffb3" stroke="black" points="1366.65,-122 1241.35,-122 1241.35,-86 1366.65,-86 1366.65,-122"/>
<text text-anchor="middle" x="1304" y="-99.8" font-family="Times,serif" font-size="14.00">NewjobComponent</text>
</g>
<!-- NewjobComponent&#45;&gt;NewjobModule -->
<g id="edge12" class="edge">
<title>NewjobComponent&#45;&gt;NewjobModule</title>
<path fill="none" stroke="black" d="M1304,-122.11C1304,-131.9 1304,-142 1304,-142 1304,-142 418.11,-142 418.11,-142 418.11,-142 418.11,-143.86 418.11,-143.86"/>
<polygon fill="black" stroke="black" points="414.61,-143.86 418.11,-153.86 421.61,-143.86 414.61,-143.86"/>
</g>
<!-- NewjobRoutingModule -->
<g id="node13" class="node">
<title>NewjobRoutingModule</title>
<polygon fill="#8dd3c7" stroke="black" points="1217.49,-122 1214.49,-126 1193.49,-126 1190.49,-122 1068.51,-122 1068.51,-86 1217.49,-86 1217.49,-122"/>
<text text-anchor="middle" x="1143" y="-99.8" font-family="Times,serif" font-size="14.00">NewjobRoutingModule</text>
</g>
<!-- NewjobRoutingModule&#45;&gt;NewjobModule -->
<g id="edge13" class="edge">
<title>NewjobRoutingModule&#45;&gt;NewjobModule</title>
<path fill="none" stroke="black" d="M1143,-122.19C1143,-130.28 1143,-138 1143,-138 1143,-138 404.28,-138 404.28,-138 404.28,-138 404.28,-143.81 404.28,-143.81"/>
<polygon fill="black" stroke="black" points="400.78,-143.81 404.28,-153.81 407.78,-143.81 400.78,-143.81"/>
</g>
<!-- NewpositionComponent -->
<g id="node14" class="node">
<title>NewpositionComponent</title>
<polygon fill="#ffffb3" stroke="black" points="1759.38,-122 1606.62,-122 1606.62,-86 1759.38,-86 1759.38,-122"/>
<text text-anchor="middle" x="1683" y="-99.8" font-family="Times,serif" font-size="14.00">NewpositionComponent</text>
</g>
<!-- NewpositionComponent&#45;&gt;NewpositionModule -->
<g id="edge15" class="edge">
<title>NewpositionComponent&#45;&gt;NewpositionModule</title>
<path fill="none" stroke="black" d="M1683,-122.18C1683,-135.04 1683,-150 1683,-150 1683,-150 540.77,-150 540.77,-150 540.77,-150 540.77,-150.38 540.77,-150.38"/>
<polygon fill="black" stroke="black" points="537.27,-143.83 540.77,-153.83 544.27,-143.83 537.27,-143.83"/>
</g>
<!-- NewpositionRoutingModule -->
<g id="node15" class="node">
<title>NewpositionRoutingModule</title>
<polygon fill="#8dd3c7" stroke="black" points="1583.21,-122 1580.21,-126 1559.21,-126 1556.21,-122 1406.79,-122 1406.79,-86 1583.21,-86 1583.21,-122"/>
<text text-anchor="middle" x="1495" y="-99.8" font-family="Times,serif" font-size="14.00">NewpositionRoutingModule</text>
</g>
<!-- NewpositionRoutingModule&#45;&gt;NewpositionModule -->
<g id="edge16" class="edge">
<title>NewpositionRoutingModule&#45;&gt;NewpositionModule</title>
<path fill="none" stroke="black" d="M1495,-122.06C1495,-133.44 1495,-146 1495,-146 1495,-146 500.99,-146 500.99,-146 500.99,-146 500.99,-146.79 500.99,-146.79"/>
<polygon fill="black" stroke="black" points="497.49,-143.94 500.99,-153.94 504.49,-143.94 497.49,-143.94"/>
</g>
</g>
</svg>
