<?xml version="1.0" encoding="UTF-8" standalone="no"?>
<!DOCTYPE svg PUBLIC "-//W3C//DTD SVG 1.1//EN"
 "http://www.w3.org/Graphics/SVG/1.1/DTD/svg11.dtd">
<!-- Generated by graphviz version 2.47.0 (20210316.0004)
 -->
<!-- Title: dependencies Pages: 1 -->
<svg width="504pt" height="211pt"
 viewBox="0.00 0.00 504.00 211.00" xmlns="http://www.w3.org/2000/svg" xmlns:xlink="http://www.w3.org/1999/xlink">
<g id="graph0" class="graph" transform="scale(1 1) rotate(0) translate(4 207)">
<title>dependencies</title>
<polygon fill="white" stroke="transparent" points="-4,4 -4,-207 500,-207 500,4 -4,4"/>
<text text-anchor="start" x="227.01" y="-42.4" font-family="Times-12" font-weight="bold" font-size="14.00">Legend</text>
<polygon fill="#ffffb3" stroke="transparent" points="14,-10 14,-30 34,-30 34,-10 14,-10"/>
<text text-anchor="start" x="37.63" y="-15.4" font-family="Times-12" font-size="14.00"> &#160;Declarations</text>
<polygon fill="#8dd3c7" stroke="transparent" points="127,-10 127,-30 147,-30 147,-10 127,-10"/>
<text text-anchor="start" x="150.73" y="-15.4" font-family="Times-12" font-size="14.00"> &#160;Module</text>
<polygon fill="#80b1d3" stroke="transparent" points="213,-10 213,-30 233,-30 233,-10 213,-10"/>
<text text-anchor="start" x="236.78" y="-15.4" font-family="Times-12" font-size="14.00"> &#160;Bootstrap</text>
<polygon fill="#fdb462" stroke="transparent" points="310,-10 310,-30 330,-30 330,-10 310,-10"/>
<text text-anchor="start" x="333.67" y="-15.4" font-family="Times-12" font-size="14.00"> &#160;Providers</text>
<polygon fill="#fb8072" stroke="transparent" points="406,-10 406,-30 426,-30 426,-10 406,-10"/>
<text text-anchor="start" x="429.73" y="-15.4" font-family="Times-12" font-size="14.00"> &#160;Exports</text>
<g id="clust1" class="cluster">
<title>cluster_NewjobModule</title>
<polygon fill="none" stroke="black" stroke-dasharray="1,5" points="24.5,-70 24.5,-195 471.5,-195 471.5,-70 24.5,-70"/>
</g>
<g id="clust2" class="cluster">
<title>cluster_NewjobModule_declarations</title>
<polygon fill="none" stroke="black" points="321.5,-78 321.5,-130 463.5,-130 463.5,-78 321.5,-78"/>
</g>
<g id="clust4" class="cluster">
<title>cluster_NewjobModule_imports</title>
<polygon fill="none" stroke="black" points="32.5,-78 32.5,-130 313.5,-130 313.5,-78 32.5,-78"/>
</g>
<!-- NewjobComponent -->
<g id="node1" class="node">
<title>NewjobComponent</title>
<polygon fill="#ffffb3" stroke="black" points="455.15,-122 329.85,-122 329.85,-86 455.15,-86 455.15,-122"/>
<text text-anchor="middle" x="392.5" y="-99.8" font-family="Times,serif" font-size="14.00">NewjobComponent</text>
</g>
<!-- NewjobModule -->
<g id="node2" class="node">
<title>NewjobModule</title>
<polygon fill="#8dd3c7" stroke="black" points="283.37,-187 280.37,-191 259.37,-191 256.37,-187 179.63,-187 179.63,-151 283.37,-151 283.37,-187"/>
<text text-anchor="middle" x="231.5" y="-164.8" font-family="Times,serif" font-size="14.00">NewjobModule</text>
</g>
<!-- NewjobComponent&#45;&gt;NewjobModule -->
<g id="edge1" class="edge">
<title>NewjobComponent&#45;&gt;NewjobModule</title>
<path fill="none" stroke="black" d="M392.5,-122.11C392.5,-141.34 392.5,-169 392.5,-169 392.5,-169 293.77,-169 293.77,-169"/>
<polygon fill="black" stroke="black" points="293.77,-165.5 283.77,-169 293.77,-172.5 293.77,-165.5"/>
</g>
<!-- NewjobRoutingModule -->
<g id="node3" class="node">
<title>NewjobRoutingModule</title>
<polygon fill="#8dd3c7" stroke="black" points="305.99,-122 302.99,-126 281.99,-126 278.99,-122 157.01,-122 157.01,-86 305.99,-86 305.99,-122"/>
<text text-anchor="middle" x="231.5" y="-99.8" font-family="Times,serif" font-size="14.00">NewjobRoutingModule</text>
</g>
<!-- NewjobRoutingModule&#45;&gt;NewjobModule -->
<g id="edge2" class="edge">
<title>NewjobRoutingModule&#45;&gt;NewjobModule</title>
<path fill="none" stroke="black" d="M231.5,-122.11C231.5,-122.11 231.5,-140.99 231.5,-140.99"/>
<polygon fill="black" stroke="black" points="228,-140.99 231.5,-150.99 235,-140.99 228,-140.99"/>
</g>
<!-- SharedModule -->
<g id="node4" class="node">
<title>SharedModule</title>
<polygon fill="#8dd3c7" stroke="black" points="138.92,-122 135.92,-126 114.92,-126 111.92,-122 40.08,-122 40.08,-86 138.92,-86 138.92,-122"/>
<text text-anchor="middle" x="89.5" y="-99.8" font-family="Times,serif" font-size="14.00">SharedModule</text>
</g>
<!-- SharedModule&#45;&gt;NewjobModule -->
<g id="edge3" class="edge">
<title>SharedModule&#45;&gt;NewjobModule</title>
<path fill="none" stroke="black" d="M89.5,-122.11C89.5,-141.34 89.5,-169 89.5,-169 89.5,-169 169.43,-169 169.43,-169"/>
<polygon fill="black" stroke="black" points="169.43,-172.5 179.43,-169 169.43,-165.5 169.43,-172.5"/>
</g>
</g>
</svg>
