<?xml version="1.0" encoding="UTF-8" standalone="no"?>
<!DOCTYPE svg PUBLIC "-//W3C//DTD SVG 1.1//EN"
 "http://www.w3.org/Graphics/SVG/1.1/DTD/svg11.dtd">
<!-- Generated by graphviz version 2.47.0 (20210316.0004)
 -->
<!-- Title: dependencies Pages: 1 -->
<svg width="524pt" height="211pt"
 viewBox="0.00 0.00 524.00 211.00" xmlns="http://www.w3.org/2000/svg" xmlns:xlink="http://www.w3.org/1999/xlink">
<g id="graph0" class="graph" transform="scale(1 1) rotate(0) translate(4 207)">
<title>dependencies</title>
<polygon fill="white" stroke="transparent" points="-4,4 -4,-207 520,-207 520,4 -4,4"/>
<text text-anchor="start" x="237.01" y="-42.4" font-family="Times-12" font-weight="bold" font-size="14.00">Legend</text>
<polygon fill="#ffffb3" stroke="transparent" points="24,-10 24,-30 44,-30 44,-10 24,-10"/>
<text text-anchor="start" x="47.63" y="-15.4" font-family="Times-12" font-size="14.00"> &#160;Declarations</text>
<polygon fill="#8dd3c7" stroke="transparent" points="137,-10 137,-30 157,-30 157,-10 137,-10"/>
<text text-anchor="start" x="160.73" y="-15.4" font-family="Times-12" font-size="14.00"> &#160;Module</text>
<polygon fill="#80b1d3" stroke="transparent" points="223,-10 223,-30 243,-30 243,-10 223,-10"/>
<text text-anchor="start" x="246.78" y="-15.4" font-family="Times-12" font-size="14.00"> &#160;Bootstrap</text>
<polygon fill="#fdb462" stroke="transparent" points="320,-10 320,-30 340,-30 340,-10 320,-10"/>
<text text-anchor="start" x="343.67" y="-15.4" font-family="Times-12" font-size="14.00"> &#160;Providers</text>
<polygon fill="#fb8072" stroke="transparent" points="416,-10 416,-30 436,-30 436,-10 416,-10"/>
<text text-anchor="start" x="439.73" y="-15.4" font-family="Times-12" font-size="14.00"> &#160;Exports</text>
<g id="clust1" class="cluster">
<title>cluster_NewpositionModule</title>
<polygon fill="none" stroke="black" stroke-dasharray="1,5" points="8,-70 8,-195 508,-195 508,-70 8,-70"/>
</g>
<g id="clust2" class="cluster">
<title>cluster_NewpositionModule_declarations</title>
<polygon fill="none" stroke="black" points="332,-78 332,-130 500,-130 500,-78 332,-78"/>
</g>
<g id="clust4" class="cluster">
<title>cluster_NewpositionModule_imports</title>
<polygon fill="none" stroke="black" points="16,-78 16,-130 324,-130 324,-78 16,-78"/>
</g>
<!-- NewpositionComponent -->
<g id="node1" class="node">
<title>NewpositionComponent</title>
<polygon fill="#ffffb3" stroke="black" points="492.38,-122 339.62,-122 339.62,-86 492.38,-86 492.38,-122"/>
<text text-anchor="middle" x="416" y="-99.8" font-family="Times,serif" font-size="14.00">NewpositionComponent</text>
</g>
<!-- NewpositionModule -->
<g id="node2" class="node">
<title>NewpositionModule</title>
<polygon fill="#8dd3c7" stroke="black" points="293.59,-187 290.59,-191 269.59,-191 266.59,-187 162.41,-187 162.41,-151 293.59,-151 293.59,-187"/>
<text text-anchor="middle" x="228" y="-164.8" font-family="Times,serif" font-size="14.00">NewpositionModule</text>
</g>
<!-- NewpositionComponent&#45;&gt;NewpositionModule -->
<g id="edge1" class="edge">
<title>NewpositionComponent&#45;&gt;NewpositionModule</title>
<path fill="none" stroke="black" d="M416,-122.11C416,-141.34 416,-169 416,-169 416,-169 303.75,-169 303.75,-169"/>
<polygon fill="black" stroke="black" points="303.75,-165.5 293.75,-169 303.75,-172.5 303.75,-165.5"/>
</g>
<!-- NewpositionRoutingModule -->
<g id="node3" class="node">
<title>NewpositionRoutingModule</title>
<polygon fill="#8dd3c7" stroke="black" points="316.21,-122 313.21,-126 292.21,-126 289.21,-122 139.79,-122 139.79,-86 316.21,-86 316.21,-122"/>
<text text-anchor="middle" x="228" y="-99.8" font-family="Times,serif" font-size="14.00">NewpositionRoutingModule</text>
</g>
<!-- NewpositionRoutingModule&#45;&gt;NewpositionModule -->
<g id="edge2" class="edge">
<title>NewpositionRoutingModule&#45;&gt;NewpositionModule</title>
<path fill="none" stroke="black" d="M228,-122.11C228,-122.11 228,-140.99 228,-140.99"/>
<polygon fill="black" stroke="black" points="224.5,-140.99 228,-150.99 231.5,-140.99 224.5,-140.99"/>
</g>
<!-- SharedModule -->
<g id="node4" class="node">
<title>SharedModule</title>
<polygon fill="#8dd3c7" stroke="black" points="122.42,-122 119.42,-126 98.42,-126 95.42,-122 23.58,-122 23.58,-86 122.42,-86 122.42,-122"/>
<text text-anchor="middle" x="73" y="-99.8" font-family="Times,serif" font-size="14.00">SharedModule</text>
</g>
<!-- SharedModule&#45;&gt;NewpositionModule -->
<g id="edge3" class="edge">
<title>SharedModule&#45;&gt;NewpositionModule</title>
<path fill="none" stroke="black" d="M73,-122.11C73,-141.34 73,-169 73,-169 73,-169 152.27,-169 152.27,-169"/>
<polygon fill="black" stroke="black" points="152.27,-172.5 162.27,-169 152.27,-165.5 152.27,-172.5"/>
</g>
</g>
</svg>
