<?xml version="1.0" encoding="UTF-8" standalone="no"?>
<!DOCTYPE svg PUBLIC "-//W3C//DTD SVG 1.1//EN"
 "http://www.w3.org/Graphics/SVG/1.1/DTD/svg11.dtd">
<!-- Generated by graphviz version 2.47.0 (20210316.0004)
 -->
<!-- Title: dependencies Pages: 1 -->
<svg width="971pt" height="284pt"
 viewBox="0.00 0.00 971.00 284.00" xmlns="http://www.w3.org/2000/svg" xmlns:xlink="http://www.w3.org/1999/xlink">
<g id="graph0" class="graph" transform="scale(1 1) rotate(0) translate(4 280)">
<title>dependencies</title>
<polygon fill="white" stroke="transparent" points="-4,4 -4,-280 967,-280 967,4 -4,4"/>
<text text-anchor="start" x="460.51" y="-42.4" font-family="Times-12" font-weight="bold" font-size="14.00">Legend</text>
<polygon fill="#ffffb3" stroke="transparent" points="247.5,-10 247.5,-30 267.5,-30 267.5,-10 247.5,-10"/>
<text text-anchor="start" x="271.13" y="-15.4" font-family="Times-12" font-size="14.00"> &#160;Declarations</text>
<polygon fill="#8dd3c7" stroke="transparent" points="360.5,-10 360.5,-30 380.5,-30 380.5,-10 360.5,-10"/>
<text text-anchor="start" x="384.23" y="-15.4" font-family="Times-12" font-size="14.00"> &#160;Module</text>
<polygon fill="#80b1d3" stroke="transparent" points="446.5,-10 446.5,-30 466.5,-30 466.5,-10 446.5,-10"/>
<text text-anchor="start" x="470.28" y="-15.4" font-family="Times-12" font-size="14.00"> &#160;Bootstrap</text>
<polygon fill="#fdb462" stroke="transparent" points="543.5,-10 543.5,-30 563.5,-30 563.5,-10 543.5,-10"/>
<text text-anchor="start" x="567.17" y="-15.4" font-family="Times-12" font-size="14.00"> &#160;Providers</text>
<polygon fill="#fb8072" stroke="transparent" points="639.5,-10 639.5,-30 659.5,-30 659.5,-10 639.5,-10"/>
<text text-anchor="start" x="663.23" y="-15.4" font-family="Times-12" font-size="14.00"> &#160;Exports</text>
<g id="clust1" class="cluster">
<title>cluster_AppModule</title>
<polygon fill="none" stroke="black" stroke-dasharray="1,5" points="8,-70 8,-268 955,-268 955,-70 8,-70"/>
</g>
<g id="clust2" class="cluster">
<title>cluster_AppModule_declarations</title>
<polygon fill="none" stroke="black" points="825,-78 825,-130 947,-130 947,-78 825,-78"/>
</g>
<g id="clust6" class="cluster">
<title>cluster_AppModule_bootstrap</title>
<polygon fill="none" stroke="black" points="396,-208 396,-260 520,-260 520,-208 396,-208"/>
</g>
<g id="clust7" class="cluster">
<title>cluster_AppModule_providers</title>
<polygon fill="none" stroke="black" points="667,-78 667,-130 817,-130 817,-78 667,-78"/>
</g>
<g id="clust4" class="cluster">
<title>cluster_AppModule_imports</title>
<polygon fill="none" stroke="black" points="16,-78 16,-130 659,-130 659,-78 16,-78"/>
</g>
<!-- AppComponent -->
<g id="node1" class="node">
<title>AppComponent</title>
<polygon fill="#ffffb3" stroke="black" points="938.94,-122 833.06,-122 833.06,-86 938.94,-86 938.94,-122"/>
<text text-anchor="middle" x="886" y="-99.8" font-family="Times,serif" font-size="14.00">AppComponent</text>
</g>
<!-- AppModule -->
<g id="node2" class="node">
<title>AppModule</title>
<polygon fill="#8dd3c7" stroke="black" points="499.66,-187 496.66,-191 475.66,-191 472.66,-187 416.34,-187 416.34,-151 499.66,-151 499.66,-187"/>
<text text-anchor="middle" x="458" y="-164.8" font-family="Times,serif" font-size="14.00">AppModule</text>
</g>
<!-- AppComponent&#45;&gt;AppModule -->
<g id="edge1" class="edge">
<title>AppComponent&#45;&gt;AppModule</title>
<path fill="none" stroke="black" d="M886,-122.29C886,-144.21 886,-178 886,-178 886,-178 509.82,-178 509.82,-178"/>
<polygon fill="black" stroke="black" points="509.82,-174.5 499.82,-178 509.82,-181.5 509.82,-174.5"/>
</g>
<!-- AppComponent  -->
<g id="node8" class="node">
<title>AppComponent </title>
<polygon fill="#80b1d3" stroke="black" points="512.44,-252 403.56,-252 403.56,-216 512.44,-216 512.44,-252"/>
<text text-anchor="middle" x="458" y="-229.8" font-family="Times,serif" font-size="14.00">AppComponent </text>
</g>
<!-- AppModule&#45;&gt;AppComponent  -->
<g id="edge7" class="edge">
<title>AppModule&#45;&gt;AppComponent </title>
<path fill="none" stroke="black" stroke-dasharray="1,5" d="M458,-187.11C458,-187.11 458,-205.99 458,-205.99"/>
<polygon fill="black" stroke="black" points="454.5,-205.99 458,-215.99 461.5,-205.99 454.5,-205.99"/>
</g>
<!-- AppRoutingModule -->
<g id="node3" class="node">
<title>AppRoutingModule</title>
<polygon fill="#8dd3c7" stroke="black" points="651.27,-122 648.27,-126 627.27,-126 624.27,-122 522.73,-122 522.73,-86 651.27,-86 651.27,-122"/>
<text text-anchor="middle" x="587" y="-99.8" font-family="Times,serif" font-size="14.00">AppRoutingModule</text>
</g>
<!-- AppRoutingModule&#45;&gt;AppModule -->
<g id="edge2" class="edge">
<title>AppRoutingModule&#45;&gt;AppModule</title>
<path fill="none" stroke="black" d="M587,-122.03C587,-138.4 587,-160 587,-160 587,-160 509.88,-160 509.88,-160"/>
<polygon fill="black" stroke="black" points="509.88,-156.5 499.88,-160 509.88,-163.5 509.88,-156.5"/>
</g>
<!-- HomeModule -->
<g id="node4" class="node">
<title>HomeModule</title>
<polygon fill="#8dd3c7" stroke="black" points="504.76,-122 501.76,-126 480.76,-126 477.76,-122 411.24,-122 411.24,-86 504.76,-86 504.76,-122"/>
<text text-anchor="middle" x="458" y="-99.8" font-family="Times,serif" font-size="14.00">HomeModule</text>
</g>
<!-- HomeModule&#45;&gt;AppModule -->
<g id="edge3" class="edge">
<title>HomeModule&#45;&gt;AppModule</title>
<path fill="none" stroke="black" d="M458,-122.11C458,-122.11 458,-140.99 458,-140.99"/>
<polygon fill="black" stroke="black" points="454.5,-140.99 458,-150.99 461.5,-140.99 454.5,-140.99"/>
</g>
<!-- NewjobModule -->
<g id="node5" class="node">
<title>NewjobModule</title>
<polygon fill="#8dd3c7" stroke="black" points="392.87,-122 389.87,-126 368.87,-126 365.87,-122 289.13,-122 289.13,-86 392.87,-86 392.87,-122"/>
<text text-anchor="middle" x="341" y="-99.8" font-family="Times,serif" font-size="14.00">NewjobModule</text>
</g>
<!-- NewjobModule&#45;&gt;AppModule -->
<g id="edge4" class="edge">
<title>NewjobModule&#45;&gt;AppModule</title>
<path fill="none" stroke="black" d="M341,-122.03C341,-138.4 341,-160 341,-160 341,-160 406.09,-160 406.09,-160"/>
<polygon fill="black" stroke="black" points="406.09,-163.5 416.09,-160 406.09,-156.5 406.09,-163.5"/>
</g>
<!-- NewpositionModule -->
<g id="node6" class="node">
<title>NewpositionModule</title>
<polygon fill="#8dd3c7" stroke="black" points="271.59,-122 268.59,-126 247.59,-126 244.59,-122 140.41,-122 140.41,-86 271.59,-86 271.59,-122"/>
<text text-anchor="middle" x="206" y="-99.8" font-family="Times,serif" font-size="14.00">NewpositionModule</text>
</g>
<!-- NewpositionModule&#45;&gt;AppModule -->
<g id="edge5" class="edge">
<title>NewpositionModule&#45;&gt;AppModule</title>
<path fill="none" stroke="black" d="M206,-122.11C206,-141.34 206,-169 206,-169 206,-169 406.1,-169 406.1,-169"/>
<polygon fill="black" stroke="black" points="406.1,-172.5 416.1,-169 406.1,-165.5 406.1,-172.5"/>
</g>
<!-- SharedModule -->
<g id="node7" class="node">
<title>SharedModule</title>
<polygon fill="#8dd3c7" stroke="black" points="122.42,-122 119.42,-126 98.42,-126 95.42,-122 23.58,-122 23.58,-86 122.42,-86 122.42,-122"/>
<text text-anchor="middle" x="73" y="-99.8" font-family="Times,serif" font-size="14.00">SharedModule</text>
</g>
<!-- SharedModule&#45;&gt;AppModule -->
<g id="edge6" class="edge">
<title>SharedModule&#45;&gt;AppModule</title>
<path fill="none" stroke="black" d="M73,-122.29C73,-144.21 73,-178 73,-178 73,-178 406.07,-178 406.07,-178"/>
<polygon fill="black" stroke="black" points="406.07,-181.5 416.07,-178 406.07,-174.5 406.07,-181.5"/>
</g>
<!-- JobappService -->
<g id="node9" class="node">
<title>JobappService</title>
<ellipse fill="#fdb462" stroke="black" cx="742" cy="-104" rx="67.2" ry="18"/>
<text text-anchor="middle" x="742" y="-99.8" font-family="Times,serif" font-size="14.00">JobappService</text>
</g>
<!-- JobappService&#45;&gt;AppModule -->
<g id="edge8" class="edge">
<title>JobappService&#45;&gt;AppModule</title>
<path fill="none" stroke="black" d="M742,-122.11C742,-141.34 742,-169 742,-169 742,-169 509.91,-169 509.91,-169"/>
<polygon fill="black" stroke="black" points="509.91,-165.5 499.91,-169 509.91,-172.5 509.91,-165.5"/>
</g>
</g>
</svg>
